<svg xmlns="http://www.w3.org/2000/svg" viewBox="0 0 36 36">
  <path fill="#FFCC4D" d="M17.202 18.061l-5.323 10.59c-.417.807-1.393 1.142-2.22.733L6.37 27.76c-.827-.409-1.171-1.385-.755-2.192l5.323-10.59c.417-.807 1.393-1.142 2.22-.733l3.289 1.624c.827.408 1.171 1.385.755 2.192z"/>
  <path fill="#FFAC33" d="M35.943 14.939c-.766-2.072-3.805-7.576-9.52-6.521-4.789.885-6.229 5.37-6.202 6.309.052 1.83 1.258 4.297 3.652 4.965 2.502.697 4.234-1.127 4.545-2.285.253-.941-.75-1.92-1.748-1.76-1.559.25-1.846-.947-1.859-1.285-.043-1.076 2.053-2.615 4.092-2.992 2.723-.503 4.285 2.07 4.604 2.934.505 1.367-1.264 4.195-2.043 5.09-1.488 1.709-3.961 3.254-7.521 2.596-2.023-.373-3.059-1.396-3.771-2.48l-1.018 2.031c-.396.791-1.467 1.139-2.295.73l-3.398-1.678c-.808-.398-1.146-1.385-.729-2.189l4.793-9.283c.408-.791 1.383-1.096 2.184-.686l3.398 1.738c.676.346 1.014 1.107.82 1.816.635-.074 1.266.012 1.832.115 2.105.391 3.385.943 4.266 1.861.947 1.018 2.455 3.529 1.714 5.532-1.256 3.391-7.051 2.373-7.59 2.273-1.004-.186-1.229 1.373-.207 1.563 1.084.2 8.529 1.447 10.385-3.568.001-.002.607-1.642 1.616-4.81z"/>
</svg>